<svg xmlns="http://www.w3.org/2000/svg" xmlns:xlink="http://www.w3.org/1999/xlink" width="255" height="60" viewBox="0 0 255 60">
  <defs>
    <clipPath id="clip-cb_logo_255x60">
      <rect width="255" height="60"/>
    </clipPath>
  </defs>
  <g id="cb_logo_255x60" clip-path="url(#clip-cb_logo_255x60)">
    <g id="Group_324" data-name="Group 324" transform="translate(9304 20287)">
      <path id="Path_1" data-name="Path 1" d="M472.5-334.981a23.768,23.768,0,0,1-3.161.21c-9.955,0-18.024-6.147-18.024-13.73,0-7.5,7.893-13.594,17.7-13.727a12.43,12.43,0,0,1-.52-3.555c0-8.871,9.47-16.063,21.152-16.063a25.111,25.111,0,0,1,14.291,4.222l-22.814,30.334,9.988-2.731-13.978,18.68a15.911,15.911,0,0,1-4.63-3.64Zm45.41-37.041c3.877.989,6.668,3.76,6.668,7.023a5.986,5.986,0,0,1-1.111,3.43c6.934,2.277,11.714,7.083,11.714,12.644,0,7.759-9.3,14.048-20.781,14.048a29.563,29.563,0,0,1-7.852-1.039c-3,4.366-9.655,7.4-17.381,7.4a26.894,26.894,0,0,1-9.406-1.637l42.979-33.561-15.841.13,11.013-8.439Z" transform="translate(-9588.178 -19902.152)" fill="#fff" fill-rule="evenodd"/>
      <g id="Group_2" data-name="Group 2" transform="translate(-9140.433 -20272.236)">
        <g id="Group_1" data-name="Group 1" transform="translate(0 0)">
          <path id="Path_2" data-name="Path 2" d="M436.45-322.439a1.342,1.342,0,0,1-1.368,1.352,1.354,1.354,0,0,1-1.377-1.352,1.351,1.351,0,0,1,1.377-1.335A1.338,1.338,0,0,1,436.45-322.439Zm-2.4,0a1.035,1.035,0,0,0,1.042,1.067,1.023,1.023,0,0,0,1.018-1.058,1.033,1.033,0,0,0-1.026-1.074A1.037,1.037,0,0,0,434.048-322.439Zm.823.7h-.31v-1.336a2.7,2.7,0,0,1,.513-.04.828.828,0,0,1,.464.1.37.37,0,0,1,.13.294.34.34,0,0,1-.276.309v.016a.4.4,0,0,1,.244.326,1.033,1.033,0,0,0,.1.334H435.4a1.148,1.148,0,0,1-.105-.326c-.025-.146-.106-.211-.278-.211h-.146Zm.008-.757h.146c.171,0,.31-.057.31-.2,0-.122-.09-.2-.285-.2a.706.706,0,0,0-.17.016Z" transform="translate(-433.706 323.774)" fill="#fff"/>
        </g>
      </g>
      <g id="Group_3" data-name="Group 3" transform="translate(-9300 -20271.125)">
        <path id="Path_3" data-name="Path 3" d="M-354-303.855a12.259,12.259,0,0,1,.783-4.284,11.646,11.646,0,0,1,2.284-3.784,11.564,11.564,0,0,1,3.667-2.7,11.331,11.331,0,0,1,4.934-1.034,10.759,10.759,0,0,1,5.651,1.434,9.161,9.161,0,0,1,3.55,3.734l-3.533,2.434a6.066,6.066,0,0,0-1.134-1.684,5.67,5.67,0,0,0-1.433-1.084,6.444,6.444,0,0,0-1.6-.583,7.594,7.594,0,0,0-1.634-.183,6.211,6.211,0,0,0-3.018.7,6.637,6.637,0,0,0-2.133,1.817,8.019,8.019,0,0,0-1.284,2.533,9.591,9.591,0,0,0-.433,2.817,9.183,9.183,0,0,0,.5,3.017,8.024,8.024,0,0,0,1.417,2.55,7.077,7.077,0,0,0,2.2,1.767,6.018,6.018,0,0,0,2.817.666,7.391,7.391,0,0,0,1.667-.2,6.325,6.325,0,0,0,1.65-.633,6.241,6.241,0,0,0,1.45-1.117,5.159,5.159,0,0,0,1.067-1.65l3.767,2.167a7.121,7.121,0,0,1-1.617,2.351,10.389,10.389,0,0,1-2.367,1.717,12.083,12.083,0,0,1-2.817,1.067,12.363,12.363,0,0,1-2.934.366,10.083,10.083,0,0,1-4.634-1.067,12.068,12.068,0,0,1-3.617-2.784,12.913,12.913,0,0,1-2.367-3.9A12.173,12.173,0,0,1-354-303.855Z" transform="translate(354 316.19)" fill="#fff"/>
        <path id="Path_4" data-name="Path 4" d="M-236.3-318.289h4.467v18.736a2.206,2.206,0,0,0,.467,1.5,1.676,1.676,0,0,0,1.333.533,3.345,3.345,0,0,0,.883-.133,5.972,5.972,0,0,0,.917-.334l.6,3.4a8.641,8.641,0,0,1-2.1.667,11.475,11.475,0,0,1-2.167.233,4.475,4.475,0,0,1-3.251-1.117,4.236,4.236,0,0,1-1.15-3.184Z" transform="translate(260.14 318.289)" fill="#fff"/>
        <path id="Path_5" data-name="Path 5" d="M-180.211-267.768a9.594,9.594,0,0,1-3.834-.733,8.6,8.6,0,0,1-2.883-1.984,8.751,8.751,0,0,1-1.817-2.884,9.417,9.417,0,0,1-.633-3.434,9.508,9.508,0,0,1,.633-3.467,8.755,8.755,0,0,1,1.817-2.883,8.608,8.608,0,0,1,2.883-1.984,9.588,9.588,0,0,1,3.834-.734,9.467,9.467,0,0,1,3.817.734,8.655,8.655,0,0,1,2.867,1.984,8.761,8.761,0,0,1,1.817,2.883,9.5,9.5,0,0,1,.633,3.467,9.413,9.413,0,0,1-.633,3.434,8.888,8.888,0,0,1-1.8,2.884,8.423,8.423,0,0,1-2.867,1.984A9.6,9.6,0,0,1-180.211-267.768Zm-4.567-9.034a6.077,6.077,0,0,0,.35,2.117,5.164,5.164,0,0,0,.966,1.65,4.327,4.327,0,0,0,1.45,1.083,4.253,4.253,0,0,0,1.8.383,4.253,4.253,0,0,0,1.8-.383,4.33,4.33,0,0,0,1.45-1.083,5.14,5.14,0,0,0,.967-1.667,6.229,6.229,0,0,0,.35-2.134,6.124,6.124,0,0,0-.35-2.1,5.148,5.148,0,0,0-.967-1.667,4.331,4.331,0,0,0-1.45-1.083,4.259,4.259,0,0,0-1.8-.383,4.112,4.112,0,0,0-1.8.4,4.52,4.52,0,0,0-1.45,1.1,5.139,5.139,0,0,0-.966,1.667A6.114,6.114,0,0,0-184.779-276.8Z" transform="translate(222.727 292.437)" fill="#fff"/>
        <path id="Path_6" data-name="Path 6" d="M-79.511-266.587a4.959,4.959,0,0,1-4.1-1.733,8.032,8.032,0,0,1-1.4-5.134v-10.935h4.467v9.968q0,4.034,2.9,4.034a4.59,4.59,0,0,0,2.517-.783,5.628,5.628,0,0,0,1.984-2.384v-10.835h4.467v12.335a1.569,1.569,0,0,0,.25,1,1.1,1.1,0,0,0,.817.334v3.8a9.585,9.585,0,0,1-1.117.167c-.3.022-.572.033-.817.033a3.219,3.219,0,0,1-1.95-.55,2.165,2.165,0,0,1-.883-1.517l-.1-1.4a7.446,7.446,0,0,1-3,2.7A9.035,9.035,0,0,1-79.511-266.587Z" transform="translate(139.502 291.256)" fill="#fff"/>
        <path id="Path_7" data-name="Path 7" d="M20.585-293.62a7.94,7.94,0,0,1-3.334-.7,7.851,7.851,0,0,1-2.634-1.934,9.037,9.037,0,0,1-1.717-2.884,10.06,10.06,0,0,1-.616-3.551,10.434,10.434,0,0,1,.583-3.534,9.264,9.264,0,0,1,1.617-2.867,7.449,7.449,0,0,1,2.467-1.934,7.048,7.048,0,0,1,3.134-.7,6.626,6.626,0,0,1,3.484.934,6.767,6.767,0,0,1,2.417,2.433v-9.934h4.467v19.2a1.654,1.654,0,0,0,.233,1,1.037,1.037,0,0,0,.8.334v3.8a10.144,10.144,0,0,1-1.9.233,3.1,3.1,0,0,1-1.967-.6,2.2,2.2,0,0,1-.866-1.567l-.1-1.1a6.335,6.335,0,0,1-2.617,2.517A7.447,7.447,0,0,1,20.585-293.62Zm1.167-3.8a4.2,4.2,0,0,0,1.3-.216,4.569,4.569,0,0,0,1.233-.617,5.379,5.379,0,0,0,1.017-.933,3.886,3.886,0,0,0,.683-1.167v-4.167a4.888,4.888,0,0,0-.75-1.35,5.546,5.546,0,0,0-1.1-1.067,5.736,5.736,0,0,0-1.3-.717,3.693,3.693,0,0,0-1.35-.267,4.019,4.019,0,0,0-1.85.433,4.392,4.392,0,0,0-1.45,1.183,5.7,5.7,0,0,0-.933,1.717,6.092,6.092,0,0,0-.333,2,5.516,5.516,0,0,0,.366,2.034,5.29,5.29,0,0,0,1,1.634,4.547,4.547,0,0,0,1.517,1.1A4.667,4.667,0,0,0,21.752-297.42Z" transform="translate(61.915 318.289)" fill="#fff"/>
        <path id="Path_8" data-name="Path 8" d="M144.937-297.43a5.546,5.546,0,0,1-.6,2.634,5.526,5.526,0,0,1-1.65,1.9,7.715,7.715,0,0,1-2.434,1.167,10.564,10.564,0,0,1-2.95.4H125.868V-315h12.669a4.668,4.668,0,0,1,2.234.534,5.587,5.587,0,0,1,1.7,1.383,6.342,6.342,0,0,1,1.083,1.934,6.508,6.508,0,0,1,.383,2.183,6.442,6.442,0,0,1-.867,3.251,5.28,5.28,0,0,1-2.533,2.25,6.089,6.089,0,0,1,3.217,2.151A6.216,6.216,0,0,1,144.937-297.43Zm-14.468-13.635v5.968H136.6a2.728,2.728,0,0,0,1.983-.8,2.94,2.94,0,0,0,.817-2.2,3.042,3.042,0,0,0-.75-2.167,2.435,2.435,0,0,0-1.85-.8ZM140.3-298.3a3.472,3.472,0,0,0-.217-1.217,3.381,3.381,0,0,0-.583-1.016,2.715,2.715,0,0,0-.867-.684,2.428,2.428,0,0,0-1.1-.25h-7.067v6.234H137.3a2.994,2.994,0,0,0,1.183-.233,2.841,2.841,0,0,0,.95-.65,3.126,3.126,0,0,0,.633-.983A3.127,3.127,0,0,0,140.3-298.3Z" transform="translate(-28.66 315.665)" fill="#fff"/>
        <path id="Path_9" data-name="Path 9" d="M239.41-267.768a9.6,9.6,0,0,1-3.834-.733,8.6,8.6,0,0,1-2.883-1.984,8.751,8.751,0,0,1-1.817-2.884,9.416,9.416,0,0,1-.633-3.434,9.508,9.508,0,0,1,.633-3.467,8.755,8.755,0,0,1,1.817-2.883,8.61,8.61,0,0,1,2.883-1.984,9.588,9.588,0,0,1,3.834-.734,9.467,9.467,0,0,1,3.817.734,8.655,8.655,0,0,1,2.867,1.984,8.762,8.762,0,0,1,1.817,2.883,9.5,9.5,0,0,1,.633,3.467,9.413,9.413,0,0,1-.633,3.434,8.889,8.889,0,0,1-1.8,2.884,8.424,8.424,0,0,1-2.867,1.984A9.6,9.6,0,0,1,239.41-267.768Zm-4.567-9.034a6.076,6.076,0,0,0,.35,2.117,5.164,5.164,0,0,0,.966,1.65,4.327,4.327,0,0,0,1.45,1.083,4.253,4.253,0,0,0,1.8.383,4.254,4.254,0,0,0,1.8-.383,4.331,4.331,0,0,0,1.45-1.083,5.14,5.14,0,0,0,.967-1.667,6.228,6.228,0,0,0,.35-2.134,6.123,6.123,0,0,0-.35-2.1,5.147,5.147,0,0,0-.967-1.667,4.332,4.332,0,0,0-1.45-1.083,4.26,4.26,0,0,0-1.8-.383,4.112,4.112,0,0,0-1.8.4,4.52,4.52,0,0,0-1.45,1.1,5.138,5.138,0,0,0-.966,1.667A6.113,6.113,0,0,0,234.842-276.8Z" transform="translate(-111.89 292.437)" fill="#fff"/>
        <path id="Path_10" data-name="Path 10" d="M335.269-318.289h4.467v18.736a2.206,2.206,0,0,0,.466,1.5,1.677,1.677,0,0,0,1.334.533,3.346,3.346,0,0,0,.883-.133,5.968,5.968,0,0,0,.917-.334l.6,3.4a8.644,8.644,0,0,1-2.1.667,11.474,11.474,0,0,1-2.167.233,4.474,4.474,0,0,1-3.251-1.117,4.236,4.236,0,0,1-1.15-3.184Z" transform="translate(-195.642 318.289)" fill="#fff"/>
        <path id="Path_11" data-name="Path 11" d="M392.966-290.131a19.92,19.92,0,0,1-2.2.8,9.251,9.251,0,0,1-2.734.4,6.353,6.353,0,0,1-1.75-.233,3.854,3.854,0,0,1-1.434-.75,3.664,3.664,0,0,1-.983-1.333,4.831,4.831,0,0,1-.366-1.984v-10.035h-2.3V-306.7h2.3v-5.668h4.467v5.668h3.667v3.434h-3.667v8.534a1.59,1.59,0,0,0,.483,1.317,1.843,1.843,0,0,0,1.184.383,4.1,4.1,0,0,0,1.367-.233q.666-.234,1.067-.4Z" transform="translate(-232.267 313.567)" fill="#fff"/>
      </g>
      <g id="Group_4" data-name="Group 4" transform="translate(-9213.369 -20244.471)">
        <path id="Path_12" data-name="Path 12" d="M77.671-156.585a6.369,6.369,0,0,1-2.192-.381,5.062,5.062,0,0,1-1.829-1.144l.476-.648a5.562,5.562,0,0,0,1.658,1.067,5.034,5.034,0,0,0,1.887.343,3.62,3.62,0,0,0,2.087-.543,1.736,1.736,0,0,0,.791-1.515,1.409,1.409,0,0,0-.2-.772,1.6,1.6,0,0,0-.6-.534,4.966,4.966,0,0,0-.991-.391q-.591-.171-1.372-.362-.839-.19-1.458-.381a3.9,3.9,0,0,1-1.02-.457,1.762,1.762,0,0,1-.6-.648,2.083,2.083,0,0,1-.2-.972,2.786,2.786,0,0,1,.286-1.3,2.556,2.556,0,0,1,.791-.915,3.638,3.638,0,0,1,1.163-.543,5.26,5.26,0,0,1,1.4-.181,5.112,5.112,0,0,1,2.058.391,3.611,3.611,0,0,1,1.391,1l-.534.515a3.023,3.023,0,0,0-1.286-.858,4.923,4.923,0,0,0-1.686-.286,4.526,4.526,0,0,0-1.039.114,2.5,2.5,0,0,0-.848.362,1.784,1.784,0,0,0-.572.639,1.925,1.925,0,0,0-.21.924,1.5,1.5,0,0,0,.143.705,1.21,1.21,0,0,0,.457.457,3.379,3.379,0,0,0,.81.334q.5.143,1.181.314.933.228,1.658.438a4.792,4.792,0,0,1,1.21.514,2.26,2.26,0,0,1,.743.724,2.012,2.012,0,0,1,.257,1.067,2.534,2.534,0,0,1-1.039,2.125A4.463,4.463,0,0,1,77.671-156.585Z" transform="translate(-73.65 170.877)" fill="#fff"/>
        <path id="Path_13" data-name="Path 13" d="M124.677-156.585a4.553,4.553,0,0,1-1.934-.41,4.789,4.789,0,0,1-1.534-1.115,5.135,5.135,0,0,1-1.01-1.639,5.379,5.379,0,0,1-.362-1.963,5.312,5.312,0,0,1,.372-1.982,5.286,5.286,0,0,1,1.02-1.639,4.8,4.8,0,0,1,1.534-1.115,4.508,4.508,0,0,1,1.915-.41,4.445,4.445,0,0,1,1.906.41,4.946,4.946,0,0,1,1.534,1.115,5.2,5.2,0,0,1,1.029,1.639,5.313,5.313,0,0,1,.372,1.982,5.259,5.259,0,0,1-.372,1.963,5.284,5.284,0,0,1-1.02,1.639,4.789,4.789,0,0,1-1.534,1.115A4.508,4.508,0,0,1,124.677-156.585Zm-3.887-5.088a4.443,4.443,0,0,0,.3,1.648,4.3,4.3,0,0,0,.829,1.343,3.926,3.926,0,0,0,1.229.905,3.477,3.477,0,0,0,1.505.333,3.479,3.479,0,0,0,1.506-.333,3.905,3.905,0,0,0,1.239-.924,4.457,4.457,0,0,0,.839-1.362,4.5,4.5,0,0,0,.3-1.667,4.451,4.451,0,0,0-.3-1.648,4.341,4.341,0,0,0-.839-1.353,4.148,4.148,0,0,0-1.229-.924,3.337,3.337,0,0,0-1.5-.343,3.4,3.4,0,0,0-1.505.343,3.923,3.923,0,0,0-1.229.934,4.648,4.648,0,0,0-.838,1.382A4.472,4.472,0,0,0,120.79-161.673Z" transform="translate(-110.481 170.877)" fill="#fff"/>
        <path id="Path_14" data-name="Path 14" d="M174.849-172.6v-9.128h-1.391v-.781h1.391v-.324a4.763,4.763,0,0,1,.743-2.849,2.4,2.4,0,0,1,2.058-1.019,3.591,3.591,0,0,1,1.105.171,2.6,2.6,0,0,1,.877.457l-.343.686a2.22,2.22,0,0,0-.657-.343,2.5,2.5,0,0,0-.81-.133,1.7,1.7,0,0,0-1.5.772,3.981,3.981,0,0,0-.524,2.239v.343h2.82v.781H175.8v9.128Z" transform="translate(-153.24 186.705)" fill="#fff"/>
        <path id="Path_15" data-name="Path 15" d="M208.6-169.929q-.077.038-.257.143a2.651,2.651,0,0,1-.457.2,5.666,5.666,0,0,1-.619.171,3.433,3.433,0,0,1-.743.076,2.428,2.428,0,0,1-.753-.114,1.782,1.782,0,0,1-.619-.343,1.632,1.632,0,0,1-.419-.553,1.77,1.77,0,0,1-.152-.762v-7.47h-1.391v-.781h1.391v-3.392h.953v3.392h2.306v.781h-2.306v7.241a.956.956,0,0,0,.381.829,1.424,1.424,0,0,0,.858.276,2.394,2.394,0,0,0,1.019-.2q.429-.2.524-.257Z" transform="translate(-176.943 183.554)" fill="#fff"/>
        <path id="Path_16" data-name="Path 16" d="M246.309-166.01h.953l-4.288,9.909h-.8l-2.23-5.24-2.23,5.24h-.8l-4.288-9.909h.934l3.792,8.861,2.077-4.878-1.677-3.964h.819l1.372,3.278,1.353-3.278h.838l-1.677,3.964,2.077,4.878Z" transform="translate(-200.423 170.202)" fill="#fff"/>
        <path id="Path_17" data-name="Path 17" d="M311.991-156.585a3.382,3.382,0,0,1-1.277-.238,3.406,3.406,0,0,1-1.039-.648,2.865,2.865,0,0,1-.7-.972,2.963,2.963,0,0,1-.248-1.21,2.339,2.339,0,0,1,.3-1.182,2.923,2.923,0,0,1,.848-.924,4.21,4.21,0,0,1,1.305-.61,6.062,6.062,0,0,1,1.677-.219,9.254,9.254,0,0,1,1.61.143,7.953,7.953,0,0,1,1.458.391v-.972a3.087,3.087,0,0,0-.8-2.239,2.879,2.879,0,0,0-2.172-.829,4.359,4.359,0,0,0-1.534.3,7.852,7.852,0,0,0-1.649.877l-.362-.648a6.5,6.5,0,0,1,3.621-1.3,3.791,3.791,0,0,1,2.82,1.039,3.9,3.9,0,0,1,1.029,2.868v4.84q0,.476.419.476v.857a1.981,1.981,0,0,1-.2.029q-.105.009-.181.009a.775.775,0,0,1-.61-.257,1.076,1.076,0,0,1-.267-.619v-.819a4.454,4.454,0,0,1-1.753,1.372A5.6,5.6,0,0,1,311.991-156.585Zm.19-.762a4.855,4.855,0,0,0,2.03-.419,3.467,3.467,0,0,0,1.42-1.105,1.277,1.277,0,0,0,.3-.762v-1.753a7.682,7.682,0,0,0-1.429-.4,8.742,8.742,0,0,0-1.544-.133,5.277,5.277,0,0,0-1.353.162,3.6,3.6,0,0,0-1.048.448,2.074,2.074,0,0,0-.676.7,1.766,1.766,0,0,0-.238.905,2.312,2.312,0,0,0,.191.934,2.192,2.192,0,0,0,.534.753,2.544,2.544,0,0,0,.81.5A2.736,2.736,0,0,0,312.181-157.347Z" transform="translate(-261.111 170.877)" fill="#fff"/>
        <path id="Path_18" data-name="Path 18" d="M367.98-165.3a3.975,3.975,0,0,0-2.334.791,3.94,3.94,0,0,0-1.4,2.068v6.193h-.953v-9.909h.915v2.439a4.787,4.787,0,0,1,1.363-1.705,3.491,3.491,0,0,1,1.82-.753c.127-.012.241-.019.343-.019h.248Z" transform="translate(-304.618 170.352)" fill="#fff"/>
        <path id="Path_19" data-name="Path 19" d="M394.435-156.585a4.618,4.618,0,0,1-1.944-.41,4.8,4.8,0,0,1-1.553-1.124,5.3,5.3,0,0,1-1.029-1.648,5.359,5.359,0,0,1-.372-2,5.238,5.238,0,0,1,.372-1.972,5.194,5.194,0,0,1,1.02-1.62,4.737,4.737,0,0,1,1.534-1.1,4.6,4.6,0,0,1,1.915-.4,4.619,4.619,0,0,1,1.944.41,4.839,4.839,0,0,1,1.543,1.105,5.062,5.062,0,0,1,1.01,1.62,5.31,5.31,0,0,1,.362,1.953v.238a.517.517,0,0,1-.019.181h-8.69a4.412,4.412,0,0,0,.4,1.591,4.513,4.513,0,0,0,.867,1.267,3.9,3.9,0,0,0,1.21.838,3.57,3.57,0,0,0,1.467.3,3.631,3.631,0,0,0,1.01-.143,4.125,4.125,0,0,0,.924-.391,3.341,3.341,0,0,0,.762-.6,2.823,2.823,0,0,0,.524-.772l.838.229a3.162,3.162,0,0,1-.619.981,4.19,4.19,0,0,1-.953.772,4.854,4.854,0,0,1-1.191.505A4.942,4.942,0,0,1,394.435-156.585Zm3.887-5.526a4.5,4.5,0,0,0-.391-1.6,4.282,4.282,0,0,0-.857-1.248,3.854,3.854,0,0,0-1.21-.819,3.671,3.671,0,0,0-1.467-.3,3.67,3.67,0,0,0-1.467.3,3.849,3.849,0,0,0-1.21.819,3.965,3.965,0,0,0-.839,1.258,4.828,4.828,0,0,0-.372,1.591Z" transform="translate(-325.547 170.877)" fill="#fff"/>
      </g>
    </g>
  </g>
</svg>
